<?xml version="1.0" encoding="UTF-8" standalone="no"?>
<!DOCTYPE svg PUBLIC "-//W3C//DTD SVG 1.1//EN" "http://www.w3.org/Graphics/SVG/1.1/DTD/svg11.dtd">
<svg width="100%" height="100%" viewBox="0 0 913 1156" version="1.1" xmlns="http://www.w3.org/2000/svg" xmlns:xlink="http://www.w3.org/1999/xlink" xml:space="preserve" xmlns:serif="http://www.serif.com/" style="fill-rule:evenodd;clip-rule:evenodd;stroke-linejoin:round;stroke-miterlimit:2;">
    <g transform="matrix(1,0,0,1,0,-0.640991)">
        <g>
            <rect x="0" y="275.816" width="17" height="290.324" style="fill:url(#_Linear1);"/>
            <path d="M267.753,308.287L250.753,308.287L250.753,274.11L267.753,266.228L267.753,308.287Z" style="fill:rgb(231,44,103);fill-rule:nonzero;"/>
            <path d="M296.271,305.934L279.271,305.934L279.271,246.273L296.271,236.685L296.271,305.934Z" style="fill:rgb(231,44,103);fill-rule:nonzero;"/>
            <path d="M459.157,308.287L442.157,329.934L442.157,65.934L459.157,53.758L459.157,308.287Z" style="fill:rgb(255,255,253);fill-rule:nonzero;"/>
            <path d="M486.607,308.287L469.608,329.934L469.608,0.641L486.607,23.934L486.607,308.287Z" style="fill:rgb(255,255,253);fill-rule:nonzero;"/>
            <path d="M514.057,329.934L497.058,308.287L497.058,87.582L514.057,87.582L514.057,329.934Z" style="fill:rgb(255,255,253);fill-rule:nonzero;"/>
            <rect x="610.235" y="217.464" width="17" height="88.47" style="fill:rgb(231,44,103);fill-rule:nonzero;"/>
            <rect x="637.294" y="250.405" width="17" height="55.529" style="fill:rgb(231,44,103);fill-rule:nonzero;"/>
            <path d="M723.75,465.913L721.324,466.258L676.264,351.463C677.324,350.405 664.618,335.581 664.618,335.581L634.618,335.581L634.618,596.934L746.382,596.934L746.382,567.111L737.853,558.581L737.549,542.455L720.382,533.934L723.75,465.913Z" style="fill:url(#_Linear2);"/>
            <path d="M171.206,363.463L155.323,335.581L144.029,347.228L144.029,493.346L165.206,493.346L171.206,363.463Z" style="fill:url(#_Linear3);"/>
            <path d="M276.382,363.463L260.5,335.581L249.206,347.228L249.206,493.346L270.382,493.346L276.382,363.463Z" style="fill:url(#_Linear4);"/>
            <path d="M892.97,389.581C894.029,389.934 912.618,409.934 912.618,409.934L872.618,479.581L815.324,451.346L742.618,451.346L725.676,411.816L743.324,386.405L859.441,384.993L892.97,389.581Z" style="fill:url(#_Linear5);"/>
            <path d="M474.762,367.699L471.912,367.699L322.265,363.111L314.5,429.463L328.97,455.934L434.5,455.934L455.676,406.522L474.762,367.699Z" style="fill:url(#_Linear6);"/>
            <path d="M474.762,367.699L455.676,406.522L434.5,455.934L434.5,596.934L525.206,596.934L525.206,566.64L518.853,559.934L518.853,455.934L488.347,367.699L474.762,367.699Z" style="fill:url(#_Linear7);"/>
            <path d="M614.853,406.522L576.029,367.699L488.347,367.699L518.853,455.934L614.853,455.934L614.853,406.522Z" style="fill:url(#_Linear8);"/>
            <path d="M72.029,529.346L61.794,311.581L51.911,298.875L33.558,290.052L33.558,596.758L51.911,566.699L72.029,529.346Z" style="fill:url(#_Linear9);"/>
            <path d="M297.559,543.111L201.206,506.758L136.265,510.993L72.029,529.346L51.911,566.699L33.558,596.758L156.029,596.758L187.088,559.346L224.676,596.934L337.088,596.934L337.088,564.64L297.559,543.111Z" style="fill:url(#_Linear10);"/>
            <path d="M434.5,596.934L434.5,590.839L457.792,557.63L463.529,561.64L438.775,596.934L434.5,596.934Z" style="fill:rgb(231,44,103);fill-rule:nonzero;"/>
            <path d="M634.618,596.934L634.618,591.999L668.096,558.741L673.032,563.705L639.584,596.934L634.618,596.934Z" style="fill:rgb(231,44,103);fill-rule:nonzero;"/>
            <path d="M746.382,513.934L858.735,513.934L872.618,479.581L801.324,454.875L723.75,465.913L720.382,533.934L737.549,542.455L737.089,517.934L746.382,513.934Z" style="fill:url(#_Linear11);"/>
            <path d="M127.441,335.581L127.441,485.934L155.323,485.934L155.323,335.581L231.206,335.581L231.206,485.934L259.794,485.934L259.794,335.581L614.853,335.581L614.853,406.522L525.206,406.522L525.206,566.64L455.676,566.64L455.676,406.522L356.5,406.522L337.088,387.111L337.088,566.64L231.912,566.64L189.441,524.169L146.912,566.699L51.911,566.699L51.911,298.875L127.441,335.581Z" style="fill:rgb(242,238,239);fill-rule:nonzero;"/>
            <path d="M664.618,567.111L746.5,567.111L746.5,479.581L872.618,479.581L834.97,441.934L746.5,441.934L746.5,409.934L912.618,409.934L912.618,335.581L664.618,335.581L664.618,567.111Z" style="fill:rgb(242,238,239);fill-rule:nonzero;"/>
            <rect x="78.705" y="159.581" width="17" height="152" style="fill:rgb(127,158,157);fill-rule:nonzero;"/>
            <rect x="99.411" y="159.581" width="17.001" height="152" style="fill:rgb(127,158,157);fill-rule:nonzero;"/>
            <path d="M200.647,308.287L183.647,308.287L183.647,132.758L200.647,123.346L200.647,308.287Z" style="fill:rgb(127,158,157);fill-rule:nonzero;"/>
            <rect x="222.235" y="159.581" width="17" height="146.353" style="fill:rgb(127,158,157);fill-rule:nonzero;"/>
            <path d="M324.788,324.287L307.788,324.287L307.788,222.111L324.788,210.287L324.788,324.287Z" style="fill:rgb(127,158,157);fill-rule:nonzero;"/>
            <path d="M353.306,308.287L336.306,308.287L336.306,170.581L353.306,158.228L353.306,308.287Z" style="fill:rgb(162,221,213);fill-rule:nonzero;"/>
            <rect x="364.823" y="292.287" width="17" height="16" style="fill:rgb(162,221,213);fill-rule:nonzero;"/>
            <rect x="672.117" y="268.758" width="17" height="37.176" style="fill:rgb(163,151,163);fill-rule:nonzero;"/>
            <rect x="697.058" y="141.699" width="17" height="164.235" style="fill:rgb(127,158,157);fill-rule:nonzero;"/>
            <rect x="738.941" y="123.346" width="17" height="182.588" style="fill:rgb(127,158,157);fill-rule:nonzero;"/>
            <rect x="816.588" y="155.816" width="17" height="158.589" style="fill:rgb(127,158,157);fill-rule:nonzero;"/>
            <rect x="838.706" y="155.816" width="17" height="158.589" style="fill:rgb(127,158,157);fill-rule:nonzero;"/>
            <rect x="403.147" y="459.991" width="14" height="131.647" style="fill:rgb(28,135,130);fill-rule:nonzero;"/>
            <rect x="573.323" y="459.991" width="14" height="131.647" style="fill:rgb(28,135,130);fill-rule:nonzero;"/>
            <rect x="599.969" y="459.991" width="14" height="131.647" style="fill:rgb(28,135,130);fill-rule:nonzero;"/>
            <path d="M583.176,157.875L583.176,291.287L553.089,291.287L553.089,303.581L600.176,303.581L600.176,167.816L583.176,157.875Z" style="fill:rgb(142,247,214);fill-rule:nonzero;"/>
            <path d="M414.706,107.052L414.706,292.287L392.147,292.287L392.147,305.934L431.706,305.934L431.706,95.934L414.706,107.052Z" style="fill:rgb(162,221,213);fill-rule:nonzero;"/>
            <rect x="9.029" y="614.823" width="17" height="375.059" style="fill:url(#_Linear12);"/>
            <rect x="384.5" y="949.882" width="17" height="121.408" style="fill:url(#_Linear13);"/>
            <path d="M311.559,942.3L311.559,1031.27L328.559,1042.85L328.559,956.398L311.559,942.3Z" style="fill:url(#_Linear14);"/>
            <path d="M285.088,1013.24L302.088,1024.82L302.088,934.446L285.088,920.349L285.088,1013.24Z" style="fill:url(#_Linear15);"/>
            <path d="M258.617,995.216L275.617,1006.79L275.617,912.495L258.617,898.397L258.617,995.216Z" style="fill:url(#_Linear16);"/>
            <path d="M614.617,798.337L614.617,994.003L631.617,983.418L631.617,787.401L614.617,798.337Z" style="fill:url(#_Linear17);"/>
            <path d="M587.088,1011.15L604.088,1000.56L604.088,805.112L587.088,816.049L587.088,1011.15Z" style="fill:url(#_Linear18);"/>
            <path d="M559.558,1028.29L576.558,1017.7L576.558,822.824L559.558,833.761L559.558,1028.29Z" style="fill:url(#_Linear19);"/>
            <path d="M462.146,907.494L462.146,1078.35L479.146,1078.35L479.146,908.98L462.146,907.494Z" style="fill:url(#_Linear20);"/>
            <path d="M436.264,1142.12L453.264,1129.65L453.264,906.716L436.264,905.23L436.264,1142.12Z" style="fill:url(#_Linear21);"/>
            <path d="M410.382,1146.35L427.382,1156L427.382,904.454L410.382,902.967L410.382,1146.35Z" style="fill:url(#_Linear22);"/>
            <path d="M279.588,654.118L249.706,614.823L234.176,642.824L233.235,703.059L255.823,723.059L279.588,654.118Z" style="fill:url(#_Linear23);"/>
            <path d="M769.446,637.329L631,634.235L487.352,667.999L487.352,707.765L549.941,719.059L585.941,742.588L693.823,742.588L734.412,677.647L769.446,637.329Z" style="fill:url(#_Linear24);"/>
            <path d="M820.529,638.471L769.446,637.329L734.412,677.647L693.823,742.588L693.823,901.176L734.412,851.999L784.751,799.238L781,790.588L815.588,742.588L890.412,742.588L903.588,678.353L820.529,638.471Z" style="fill:url(#_Linear25);"/>
            <path d="M693.823,901.176L812.764,927.53L815.588,870.353L784.751,799.238L734.412,851.999L693.823,901.176Z" style="fill:url(#_Linear26);"/>
            <path d="M387.117,884.941L491.823,901.176L491.823,850.824L469.214,813.14L402.411,851.999L387.117,884.941Z" style="fill:rgb(5,65,66);fill-rule:nonzero;"/>
            <path d="M545.235,725.882L461.558,718.118L426.176,644.705L364.764,618.588L347.353,614.823L341,639.53L387.117,685.412L387.117,884.941L402.411,851.999L469.214,813.14L467.118,809.647L491.823,787.059L570.882,787.059L585.941,742.588L545.235,725.882Z" style="fill:url(#_Linear27);"/>
            <path d="M42.646,963.882L112.882,982.588L161.428,911.305L161,848.705L145.396,824.212L72.764,936.941L42.646,963.882Z" style="fill:url(#_Linear28);"/>
            <path d="M324.647,836.47L216.647,711.176L148.396,667.625L142.743,741.957L154.529,765.53L338.411,955.765L338.411,887.647L324.647,836.47Z" style="fill:url(#_Linear29);"/>
            <path d="M142.529,663.882L66.999,627.176L26.411,614.823L9.823,614.823L42.646,656.47L42.646,963.882L72.764,936.941L145.396,824.212L132.294,803.647L137.941,732.353L142.743,741.957L148.396,667.625L142.529,663.882Z" style="fill:url(#_Linear30);"/>
            <path d="M26.411,614.823L162.411,614.823L249.706,702.118L249.706,614.823L338.411,614.823L338.411,889.176L161,711.764L161,848.705L72.764,936.941L72.764,657.176L95.117,663.294L26.411,614.823Z" style="fill:url(#_Linear31);"/>
            <path d="M347.353,614.823L415.117,666.118L402.411,664.235L402.411,851.999L491.823,851.999L491.823,742.824L585,742.824L547.352,705.176L491.352,705.176L491.352,677.647L734.412,677.647L734.412,851.999L815.588,870.353L815.588,678.353L903.588,678.353L903.588,614.823L347.353,614.823Z" style="fill:url(#_Linear32);"/>
        </g>
    </g>
    <defs>
        <linearGradient id="_Linear1" x1="0" y1="0" x2="1" y2="0" gradientUnits="userSpaceOnUse" gradientTransform="matrix(1.77772e-15,-290.324,290.324,1.77772e-15,8.5,566.14)"><stop offset="0" style="stop-color:rgb(105,72,70);stop-opacity:1"/><stop offset="1" style="stop-color:rgb(214,49,91);stop-opacity:1"/></linearGradient>
        <linearGradient id="_Linear2" x1="0" y1="0" x2="1" y2="0" gradientUnits="userSpaceOnUse" gradientTransform="matrix(147.558,186.737,-186.737,147.558,601.419,405.097)"><stop offset="0" style="stop-color:rgb(212,29,123);stop-opacity:1"/><stop offset="0.7" style="stop-color:rgb(220,36,108);stop-opacity:1"/><stop offset="1" style="stop-color:rgb(202,28,121);stop-opacity:1"/></linearGradient>
        <linearGradient id="_Linear3" x1="0" y1="0" x2="1" y2="0" gradientUnits="userSpaceOnUse" gradientTransform="matrix(27.1765,0,0,27.1765,144.029,414.464)"><stop offset="0" style="stop-color:rgb(137,18,80);stop-opacity:1"/><stop offset="1" style="stop-color:rgb(223,33,112);stop-opacity:1"/></linearGradient>
        <linearGradient id="_Linear4" x1="0" y1="0" x2="1" y2="0" gradientUnits="userSpaceOnUse" gradientTransform="matrix(27.1765,0,0,27.1765,249.206,414.464)"><stop offset="0" style="stop-color:rgb(137,18,80);stop-opacity:1"/><stop offset="1" style="stop-color:rgb(223,33,112);stop-opacity:1"/></linearGradient>
        <linearGradient id="_Linear5" x1="0" y1="0" x2="1" y2="0" gradientUnits="userSpaceOnUse" gradientTransform="matrix(134.046,0,0,134.046,754.265,432.287)"><stop offset="0" style="stop-color:rgb(4,49,47);stop-opacity:1"/><stop offset="0.5" style="stop-color:rgb(10,91,96);stop-opacity:1"/><stop offset="1" style="stop-color:rgb(10,91,96);stop-opacity:1"/></linearGradient>
        <linearGradient id="_Linear6" x1="0" y1="0" x2="1" y2="0" gradientUnits="userSpaceOnUse" gradientTransform="matrix(3.56284e-16,-58.1856,58.1856,3.56284e-16,394.631,480.287)"><stop offset="0" style="stop-color:rgb(10,91,96);stop-opacity:1"/><stop offset="0.5" style="stop-color:rgb(10,91,96);stop-opacity:1"/><stop offset="1" style="stop-color:rgb(4,49,47);stop-opacity:1"/></linearGradient>
        <linearGradient id="_Linear7" x1="0" y1="0" x2="1" y2="0" gradientUnits="userSpaceOnUse" gradientTransform="matrix(108.347,115.495,-115.495,108.347,437.454,456.765)"><stop offset="0" style="stop-color:rgb(137,18,80);stop-opacity:1"/><stop offset="0.6" style="stop-color:rgb(217,36,104);stop-opacity:1"/><stop offset="1" style="stop-color:rgb(200,28,121);stop-opacity:1"/></linearGradient>
        <linearGradient id="_Linear8" x1="0" y1="0" x2="1" y2="0" gradientUnits="userSpaceOnUse" gradientTransform="matrix(4.00214e-16,-65.3599,65.3599,4.00214e-16,551.6,478.875)"><stop offset="0" style="stop-color:rgb(10,91,96);stop-opacity:1"/><stop offset="0.5" style="stop-color:rgb(10,91,96);stop-opacity:1"/><stop offset="1" style="stop-color:rgb(4,49,47);stop-opacity:1"/></linearGradient>
        <linearGradient id="_Linear9" x1="0" y1="0" x2="1" y2="0" gradientUnits="userSpaceOnUse" gradientTransform="matrix(7.63561,0,0,7.63561,33.5587,443.405)"><stop offset="0" style="stop-color:rgb(230,43,103);stop-opacity:1"/><stop offset="1" style="stop-color:rgb(226,42,100);stop-opacity:1"/></linearGradient>
        <linearGradient id="_Linear10" x1="0" y1="0" x2="1" y2="0" gradientUnits="userSpaceOnUse" gradientTransform="matrix(303.529,0,0,303.529,33.5587,551.846)"><stop offset="0" style="stop-color:rgb(212,29,123);stop-opacity:1"/><stop offset="0.7" style="stop-color:rgb(220,36,108);stop-opacity:1"/><stop offset="1" style="stop-color:rgb(202,28,121);stop-opacity:1"/></linearGradient>
        <linearGradient id="_Linear11" x1="0" y1="0" x2="1" y2="0" gradientUnits="userSpaceOnUse" gradientTransform="matrix(0.46376,-32.736,32.736,0.46376,796.288,521.686)"><stop offset="0" style="stop-color:rgb(137,18,80);stop-opacity:1"/><stop offset="1" style="stop-color:rgb(223,33,112);stop-opacity:1"/></linearGradient>
        <linearGradient id="_Linear12" x1="0" y1="0" x2="1" y2="0" gradientUnits="userSpaceOnUse" gradientTransform="matrix(2.29657e-15,-375.059,375.059,2.29657e-15,17.5296,989.882)"><stop offset="0" style="stop-color:rgb(28,93,75);stop-opacity:1"/><stop offset="1" style="stop-color:rgb(20,89,77);stop-opacity:1"/></linearGradient>
        <linearGradient id="_Linear13" x1="0" y1="0" x2="1" y2="0" gradientUnits="userSpaceOnUse" gradientTransform="matrix(7.43435e-16,-121.412,121.412,7.43435e-16,393,1071.29)"><stop offset="0" style="stop-color:rgb(137,18,80);stop-opacity:1"/><stop offset="0.6" style="stop-color:rgb(217,36,104);stop-opacity:1"/><stop offset="1" style="stop-color:rgb(200,28,121);stop-opacity:1"/></linearGradient>
        <linearGradient id="_Linear14" x1="0" y1="0" x2="1" y2="0" gradientUnits="userSpaceOnUse" gradientTransform="matrix(6.15678e-16,-100.548,100.548,6.15678e-16,320.059,1042.85)"><stop offset="0" style="stop-color:rgb(137,18,80);stop-opacity:1"/><stop offset="0.6" style="stop-color:rgb(217,36,104);stop-opacity:1"/><stop offset="1" style="stop-color:rgb(200,28,121);stop-opacity:1"/></linearGradient>
        <linearGradient id="_Linear15" x1="0" y1="0" x2="1" y2="0" gradientUnits="userSpaceOnUse" gradientTransform="matrix(6.39706e-16,-104.472,104.472,6.39706e-16,293.588,1024.82)"><stop offset="0" style="stop-color:rgb(137,18,80);stop-opacity:1"/><stop offset="0.6" style="stop-color:rgb(217,36,104);stop-opacity:1"/><stop offset="1" style="stop-color:rgb(200,28,121);stop-opacity:1"/></linearGradient>
        <linearGradient id="_Linear16" x1="0" y1="0" x2="1" y2="0" gradientUnits="userSpaceOnUse" gradientTransform="matrix(6.63735e-16,-108.396,108.396,6.63735e-16,267.117,1006.79)"><stop offset="0" style="stop-color:rgb(137,18,80);stop-opacity:1"/><stop offset="0.6" style="stop-color:rgb(217,36,104);stop-opacity:1"/><stop offset="1" style="stop-color:rgb(200,28,121);stop-opacity:1"/></linearGradient>
        <linearGradient id="_Linear17" x1="0" y1="0" x2="1" y2="0" gradientUnits="userSpaceOnUse" gradientTransform="matrix(1.26508e-15,-206.603,206.603,1.26508e-15,623.117,994.004)"><stop offset="0" style="stop-color:rgb(137,18,80);stop-opacity:1"/><stop offset="0.6" style="stop-color:rgb(217,36,104);stop-opacity:1"/><stop offset="1" style="stop-color:rgb(200,28,121);stop-opacity:1"/></linearGradient>
        <linearGradient id="_Linear18" x1="0" y1="0" x2="1" y2="0" gradientUnits="userSpaceOnUse" gradientTransform="matrix(1.26159e-15,-206.033,206.033,1.26159e-15,595.588,1011.15)"><stop offset="0" style="stop-color:rgb(137,18,80);stop-opacity:1"/><stop offset="0.6" style="stop-color:rgb(217,36,104);stop-opacity:1"/><stop offset="1" style="stop-color:rgb(200,28,121);stop-opacity:1"/></linearGradient>
        <linearGradient id="_Linear19" x1="0" y1="0" x2="1" y2="0" gradientUnits="userSpaceOnUse" gradientTransform="matrix(1.2581e-15,-205.464,205.464,1.2581e-15,568.059,1028.29)"><stop offset="0" style="stop-color:rgb(137,18,80);stop-opacity:1"/><stop offset="0.6" style="stop-color:rgb(217,36,104);stop-opacity:1"/><stop offset="1" style="stop-color:rgb(200,28,121);stop-opacity:1"/></linearGradient>
        <linearGradient id="_Linear20" x1="0" y1="0" x2="1" y2="0" gradientUnits="userSpaceOnUse" gradientTransform="matrix(1.04621e-15,-170.86,170.86,1.04621e-15,470.647,1078.35)"><stop offset="0" style="stop-color:rgb(137,18,80);stop-opacity:1"/><stop offset="0.6" style="stop-color:rgb(217,36,104);stop-opacity:1"/><stop offset="1" style="stop-color:rgb(200,28,121);stop-opacity:1"/></linearGradient>
        <linearGradient id="_Linear21" x1="0" y1="0" x2="1" y2="0" gradientUnits="userSpaceOnUse" gradientTransform="matrix(1.45052e-15,-236.887,236.887,1.45052e-15,444.764,1142.12)"><stop offset="0" style="stop-color:rgb(137,18,80);stop-opacity:1"/><stop offset="0.6" style="stop-color:rgb(217,36,104);stop-opacity:1"/><stop offset="1" style="stop-color:rgb(200,28,121);stop-opacity:1"/></linearGradient>
        <linearGradient id="_Linear22" x1="0" y1="0" x2="1" y2="0" gradientUnits="userSpaceOnUse" gradientTransform="matrix(1.54938e-15,-253.032,253.032,1.54938e-15,418.882,1156)"><stop offset="0" style="stop-color:rgb(137,18,80);stop-opacity:1"/><stop offset="0.6" style="stop-color:rgb(217,36,104);stop-opacity:1"/><stop offset="1" style="stop-color:rgb(200,28,121);stop-opacity:1"/></linearGradient>
        <linearGradient id="_Linear23" x1="0" y1="0" x2="1" y2="0" gradientUnits="userSpaceOnUse" gradientTransform="matrix(17.0474,0,0,17.0474,233.235,668.941)"><stop offset="0" style="stop-color:rgb(137,18,80);stop-opacity:1"/><stop offset="1" style="stop-color:rgb(223,33,112);stop-opacity:1"/></linearGradient>
        <linearGradient id="_Linear24" x1="0" y1="0" x2="1" y2="0" gradientUnits="userSpaceOnUse" gradientTransform="matrix(279.621,37.2717,-37.2717,279.621,490.473,665.003)"><stop offset="0" style="stop-color:rgb(4,47,45);stop-opacity:1"/><stop offset="0.3" style="stop-color:rgb(5,51,50);stop-opacity:1"/><stop offset="0.7" style="stop-color:rgb(11,107,114);stop-opacity:1"/><stop offset="1" style="stop-color:rgb(11,107,114);stop-opacity:1"/></linearGradient>
        <linearGradient id="_Linear25" x1="0" y1="0" x2="1" y2="0" gradientUnits="userSpaceOnUse" gradientTransform="matrix(118.223,173.276,-173.276,118.223,703.203,649.788)"><stop offset="0" style="stop-color:rgb(4,47,45);stop-opacity:1"/><stop offset="0.3" style="stop-color:rgb(5,51,50);stop-opacity:1"/><stop offset="0.7" style="stop-color:rgb(11,107,114);stop-opacity:1"/><stop offset="1" style="stop-color:rgb(11,107,114);stop-opacity:1"/></linearGradient>
        <linearGradient id="_Linear26" x1="0" y1="0" x2="1" y2="0" gradientUnits="userSpaceOnUse" gradientTransform="matrix(7.85557e-16,-128.291,128.291,7.85557e-16,754.706,927.529)"><stop offset="0" style="stop-color:rgb(8,79,82);stop-opacity:1"/><stop offset="1" style="stop-color:rgb(8,66,66);stop-opacity:1"/></linearGradient>
        <linearGradient id="_Linear27" x1="0" y1="0" x2="1" y2="0" gradientUnits="userSpaceOnUse" gradientTransform="matrix(88.7653,228.291,-228.291,88.7653,409.945,616.803)"><stop offset="0" style="stop-color:rgb(18,133,135);stop-opacity:1"/><stop offset="1" style="stop-color:rgb(42,198,191);stop-opacity:1"/></linearGradient>
        <linearGradient id="_Linear28" x1="0" y1="0" x2="1" y2="0" gradientUnits="userSpaceOnUse" gradientTransform="matrix(118.781,0,0,118.781,42.6468,903.4)"><stop offset="0" style="stop-color:rgb(8,79,82);stop-opacity:1"/><stop offset="1" style="stop-color:rgb(8,68,68);stop-opacity:1"/></linearGradient>
        <linearGradient id="_Linear29" x1="0" y1="0" x2="1" y2="0" gradientUnits="userSpaceOnUse" gradientTransform="matrix(195.668,0,0,195.668,142.743,811.695)"><stop offset="0" style="stop-color:rgb(11,114,123);stop-opacity:1"/><stop offset="1" style="stop-color:rgb(4,40,38);stop-opacity:1"/></linearGradient>
        <linearGradient id="_Linear30" x1="0" y1="0" x2="1" y2="0" gradientUnits="userSpaceOnUse" gradientTransform="matrix(2.13737e-15,349.059,-349.059,2.13737e-15,79.1097,614.823)"><stop offset="0" style="stop-color:rgb(18,133,137);stop-opacity:1"/><stop offset="1" style="stop-color:rgb(54,226,214);stop-opacity:1"/></linearGradient>
        <linearGradient id="_Linear31" x1="0" y1="0" x2="1" y2="0" gradientUnits="userSpaceOnUse" gradientTransform="matrix(1.9724e-15,-322.118,322.118,1.9724e-15,182.411,936.941)"><stop offset="0" style="stop-color:rgb(163,251,237);stop-opacity:1"/><stop offset="0.8" style="stop-color:rgb(253,254,254);stop-opacity:1"/><stop offset="1" style="stop-color:white;stop-opacity:1"/></linearGradient>
        <linearGradient id="_Linear32" x1="0" y1="0" x2="1" y2="0" gradientUnits="userSpaceOnUse" gradientTransform="matrix(1.56467e-15,-255.529,255.529,1.56467e-15,625.47,870.353)"><stop offset="0" style="stop-color:rgb(163,251,237);stop-opacity:1"/><stop offset="0.8" style="stop-color:rgb(253,254,254);stop-opacity:1"/><stop offset="1" style="stop-color:white;stop-opacity:1"/></linearGradient>
    </defs>
</svg>
